<svg width="32" height="32" viewBox="0 0 32 32" fill="none" xmlns="http://www.w3.org/2000/svg">
<path d="M15.5351 22.984C15.7431 23.512 15.9831 23.896 16.2551 24.136C16.5271 24.376 16.7911 24.504 17.0471 24.52V25C16.0871 24.952 14.8711 24.928 13.3991 24.928C11.7671 24.928 10.5511 24.952 9.75109 25V24.52C10.3591 24.488 10.7911 24.416 11.0471 24.304C11.3031 24.176 11.4311 23.96 11.4311 23.656C11.4311 23.368 11.3351 22.984 11.1431 22.504L9.70309 18.568H4.47109L3.84709 20.224C3.39909 21.376 3.17509 22.264 3.17509 22.888C3.17509 23.48 3.35109 23.896 3.70309 24.136C4.07109 24.36 4.60709 24.488 5.31109 24.52V25C4.22309 24.952 3.23109 24.928 2.33509 24.928C1.59909 24.928 0.991094 24.952 0.511094 25V24.52C1.29509 24.376 1.98309 23.536 2.57509 22L8.04709 7.96C8.22309 7.976 8.50309 7.984 8.88709 7.984C9.27109 7.984 9.54309 7.976 9.70309 7.96L15.5351 22.984ZM9.53509 18.088L7.15909 11.608L4.66309 18.088H9.53509ZM29.5457 8.08C30.2817 8.08 30.8897 8.056 31.3697 8.008V8.488C30.9697 8.632 30.5777 8.936 30.1937 9.4C29.8097 9.864 29.4657 10.512 29.1617 11.344L24.0977 25.048C23.9217 25.032 23.6417 25.024 23.2577 25.024C22.8897 25.024 22.6177 25.032 22.4417 25.048L16.3217 10.024C16.1137 9.496 15.8737 9.112 15.6017 8.872C15.3297 8.632 15.0657 8.504 14.8097 8.488V8.008C15.7697 8.056 16.9857 8.08 18.4577 8.08C20.1057 8.08 21.3217 8.056 22.1057 8.008V8.488C21.4977 8.52 21.0657 8.592 20.8097 8.704C20.5537 8.816 20.4257 9.04 20.4257 9.376C20.4257 9.648 20.5217 10.024 20.7137 10.504L24.9377 21.256L27.8897 13.288C28.3377 12.056 28.5617 11.08 28.5617 10.36C28.5617 9.72 28.3857 9.256 28.0337 8.968C27.6977 8.68 27.2017 8.52 26.5457 8.488V8.008C27.6337 8.056 28.6337 8.08 29.5457 8.08Z" fill="#F5F5F5"/>
</svg>
